<svg width="1640" height="200" viewBox="0 0 1640 200" fill="none" xmlns="http://www.w3.org/2000/svg">
<g clip-path="url(#clip0_130_15)">
<path d="M6.86 153.94H60.368C61.2827 156.684 63.9613 159.036 68.404 160.996C72.8467 162.825 78.792 164.263 86.24 165.308C93.8187 166.223 102.573 166.68 112.504 166.68C122.304 166.68 130.013 166.419 135.632 165.896C141.381 165.243 145.432 164.197 147.784 162.76C150.136 161.192 151.312 159.101 151.312 156.488C151.312 154.005 149.417 152.111 145.628 150.804C141.839 149.367 135.109 148.387 125.44 147.864C115.771 147.341 102.181 147.08 84.672 147.08C71.6053 147.08 60.3027 146.492 50.764 145.316C41.356 144.009 33.5813 142.049 27.44 139.436C21.4293 136.692 16.9867 133.295 14.112 129.244C11.2373 125.063 9.8 120.097 9.8 114.348C9.8 104.417 13.132 96.2507 19.796 89.848C26.5907 83.3147 36.7827 78.48 50.372 75.344C64.092 72.0773 81.2093 70.444 101.724 70.444C131.777 70.444 154.709 74.8213 170.52 83.576C186.461 92.2 194.432 104.679 194.432 121.012H143.668C143.015 116.7 138.964 113.433 131.516 111.212C124.068 108.86 113.484 107.684 99.764 107.684C86.1747 107.684 76.048 108.468 69.384 110.036C62.8507 111.604 59.584 114.283 59.584 118.072C59.584 120.032 60.4987 121.6 62.328 122.776C64.1573 123.952 67.2933 124.932 71.736 125.716C76.3093 126.369 82.712 126.827 90.944 127.088C99.176 127.349 109.629 127.48 122.304 127.48C136.285 127.48 148.176 128.199 157.976 129.636C167.776 130.943 175.681 132.968 181.692 135.712C187.833 138.456 192.276 141.984 195.02 146.296C197.764 150.477 199.136 155.443 199.136 161.192C199.136 171.123 196 179.224 189.728 185.496C183.456 191.768 173.525 196.407 159.936 199.412C146.347 202.417 128.576 203.92 106.624 203.92C94.2107 203.92 82.7773 203.201 72.324 201.764C62.0013 200.327 52.7893 198.236 44.688 195.492C36.5867 192.617 29.7267 189.155 24.108 185.104C18.4893 180.923 14.1773 176.284 11.172 171.188C8.29733 165.961 6.86 160.212 6.86 153.94ZM250.761 180.988V151.588H384.825V180.988H250.761ZM206.857 200L290.941 74.56H345.429L430.297 200H376.397L303.681 87.692H332.885L260.757 200H206.857ZM498.927 74.56V162.76H613.195V200H449.927V74.56H498.927ZM670.89 180.988V151.588H804.954V180.988H670.89ZM626.986 200L711.07 74.56H765.558L850.426 200H796.526L723.81 87.692H753.014L680.886 200H626.986ZM836.759 74.56H1040.6V111.8H836.759V74.56ZM914.179 109.252H963.179V200H914.179V109.252ZM1066.98 74.56H1115.98V200H1066.98V74.56ZM1264.54 203.92C1247.55 203.92 1231.93 202.875 1217.69 200.784C1203.58 198.824 1191.3 195.427 1180.84 190.592C1170.52 185.627 1162.48 178.897 1156.74 170.404C1151.12 161.911 1148.31 151.196 1148.31 138.26C1148.31 125.324 1151.18 114.544 1156.93 105.92C1162.68 97.1653 1170.91 90.24 1181.63 85.144C1192.47 79.9173 1205.34 76.1933 1220.24 73.972C1235.27 71.7507 1251.99 70.64 1270.42 70.64C1294.59 70.64 1314.84 72.8613 1331.18 77.304C1347.64 81.7467 1360.18 88.084 1368.81 96.316C1377.43 104.417 1382.07 114.087 1382.72 125.324H1331.76C1330.2 122.449 1327.32 119.705 1323.14 117.092C1318.96 114.348 1312.69 112.127 1304.32 110.428C1295.96 108.729 1284.66 107.88 1270.42 107.88C1253.69 107.88 1240.1 108.925 1229.65 111.016C1219.19 112.976 1211.55 116.177 1206.72 120.62C1201.88 125.063 1199.46 130.943 1199.46 138.26C1199.46 144.663 1201.95 149.955 1206.91 154.136C1211.88 158.317 1219.85 161.453 1230.82 163.544C1241.8 165.635 1256.3 166.68 1274.34 166.68C1287.01 166.68 1297.99 166.157 1307.26 165.112C1316.67 163.936 1325.16 162.172 1332.74 159.82C1340.45 157.468 1348.1 154.528 1355.68 151L1360.38 156.684C1352.28 171.972 1340.26 183.667 1324.32 191.768C1308.37 199.869 1288.45 203.92 1264.54 203.92ZM1347.05 200C1347.05 196.08 1347.57 191.637 1348.62 186.672C1349.66 181.707 1350.97 176.545 1352.54 171.188C1354.24 165.7 1355.87 160.539 1357.44 155.704H1281V135.124H1385.47V200H1347.05ZM1448.94 180.988V151.588H1583V180.988H1448.94ZM1405.04 200L1489.12 74.56H1543.61L1628.48 200H1574.58L1501.86 87.692H1531.06L1458.94 200H1405.04Z" fill="white"/>
</g>
<defs>
<clipPath id="clip0_130_15">
<rect width="1640" height="200" fill="white"/>
</clipPath>
</defs>
</svg>
